<?xml version="1.0" encoding="UTF-8"?>
<svg width="297mm" height="210mm" version="1.1" viewBox="0 0 297 210" xmlns="http://www.w3.org/2000/svg" xmlns:cc="http://creativecommons.org/ns#" xmlns:dc="http://purl.org/dc/elements/1.1/" xmlns:rdf="http://www.w3.org/1999/02/22-rdf-syntax-ns#">
 <defs>
  <marker id="marker2523" overflow="visible" orient="auto">
   <path transform="scale(.6) rotate(180) translate(0)" d="m8.7186 4.0337-10.926-4.0177 10.926-4.0177c-1.7455 2.3721-1.7354 5.6175-6e-7 8.0354z" fill-rule="evenodd" stroke="#000" stroke-linejoin="round" stroke-width=".625"/>
  </marker>
  <marker id="marker2471" overflow="visible" orient="auto">
   <path transform="scale(.6) rotate(180) translate(0)" d="m8.7186 4.0337-10.926-4.0177 10.926-4.0177c-1.7455 2.3721-1.7354 5.6175-6e-7 8.0354z" fill="#63acbe" fill-rule="evenodd" stroke="#63acbe" stroke-linejoin="round" stroke-width=".625"/>
  </marker>
  <marker id="Arrow2Mend" overflow="visible" orient="auto">
   <path transform="scale(.6) rotate(180) translate(0)" d="m8.7186 4.0337-10.926-4.0177 10.926-4.0177c-1.7455 2.3721-1.7354 5.6175-6e-7 8.0354z" fill="#ee442f" fill-rule="evenodd" stroke="#ee442f" stroke-linejoin="round" stroke-width=".625"/>
  </marker>
 </defs>
 <metadata>
  <rdf:RDF>
   <cc:Work rdf:about="">
    <dc:format>image/svg+xml</dc:format>
    <dc:type rdf:resource="http://purl.org/dc/dcmitype/StillImage"/>
    <dc:title/>
   </cc:Work>
  </rdf:RDF>
 </metadata>
 <g transform="translate(-2.3903 .21741)">
  <g transform="matrix(.11704 0 0 .11704 90.121 138.68)" stroke-width="1.0003">
   <g stroke-width="1.0003">
    <circle cx="50" cy="13" r="10.5"/>
    <path d="m73.3 50-9.9-18.5c-1.8-3.4-5.3-5.5-9.1-5.5h-8.7c-3.8 0-7.3 2.1-9.1 5.5l-9.8 18.5c-1.2 2.3-0.4 5.1 1.9 6.3 0.7 0.4 1.5 0.6 2.2 0.6 1.7 0 3.3-0.9 4.1-2.5l5.8-10.9-4.6 48c-0.3 3 1.9 5.7 4.9 6h0.5c2.8 0 5.2-2.1 5.4-4.9l3-31.1 3 31.1c0.3 2.8 2.6 4.9 5.4 4.9h0.5c3-0.3 5.2-3 4.9-6l-4.6-48 5.8 10.9c0.8 1.6 2.5 2.5 4.1 2.5 0.7 0 1.5-0.2 2.2-0.6 2.5-1.2 3.3-4 2.1-6.3z"/>
   </g>
  </g>
  <ellipse cx="95.972" cy="145.02" rx="4.7815" ry="8.9398" fill="none" stroke="#ee442f" stroke-width=".794"/>
  <text x="86.282005" y="133.07118" fill="#ee442f" font-family="sans-serif" font-size="4.2333px" letter-spacing="0px" stroke-width=".26458" word-spacing="0px" style="line-height:1.25" xml:space="preserve"><tspan x="86.282005" y="133.07118" fill="#ee442f" stroke-width=".26458">Delegate</tspan></text>
 </g>
 <ellipse cx="75.302" cy="69.146" rx="26.857" ry="23.607" fill="none" stroke="#000" stroke-width=".765"/>
 <g stroke-width="1.0003">
  <g transform="matrix(.11704 0 0 .11704 57.087 54.307)">
   <g stroke-width="1.0003">
    <circle cx="50" cy="13" r="10.5"/>
    <path d="m73.3 50-9.9-18.5c-1.8-3.4-5.3-5.5-9.1-5.5h-8.7c-3.8 0-7.3 2.1-9.1 5.5l-9.8 18.5c-1.2 2.3-0.4 5.1 1.9 6.3 0.7 0.4 1.5 0.6 2.2 0.6 1.7 0 3.3-0.9 4.1-2.5l5.8-10.9-4.6 48c-0.3 3 1.9 5.7 4.9 6h0.5c2.8 0 5.2-2.1 5.4-4.9l3-31.1 3 31.1c0.3 2.8 2.6 4.9 5.4 4.9h0.5c3-0.3 5.2-3 4.9-6l-4.6-48 5.8 10.9c0.8 1.6 2.5 2.5 4.1 2.5 0.7 0 1.5-0.2 2.2-0.6 2.5-1.2 3.3-4 2.1-6.3z"/>
   </g>
  </g>
  <g transform="matrix(.11704 0 0 .11704 66.913 75.463)">
   <g stroke-width="1.0003">
    <circle cx="50" cy="13" r="10.5"/>
    <path d="m73.3 50-9.9-18.5c-1.8-3.4-5.3-5.5-9.1-5.5h-8.7c-3.8 0-7.3 2.1-9.1 5.5l-9.8 18.5c-1.2 2.3-0.4 5.1 1.9 6.3 0.7 0.4 1.5 0.6 2.2 0.6 1.7 0 3.3-0.9 4.1-2.5l5.8-10.9-4.6 48c-0.3 3 1.9 5.7 4.9 6h0.5c2.8 0 5.2-2.1 5.4-4.9l3-31.1 3 31.1c0.3 2.8 2.6 4.9 5.4 4.9h0.5c3-0.3 5.2-3 4.9-6l-4.6-48 5.8 10.9c0.8 1.6 2.5 2.5 4.1 2.5 0.7 0 1.5-0.2 2.2-0.6 2.5-1.2 3.3-4 2.1-6.3z"/>
   </g>
  </g>
  <g transform="matrix(.11704 0 0 .11704 177.22 63.024)">
   <g stroke-width="1.0003">
    <circle cx="50" cy="13" r="10.5"/>
    <path d="m73.3 50-9.9-18.5c-1.8-3.4-5.3-5.5-9.1-5.5h-8.7c-3.8 0-7.3 2.1-9.1 5.5l-9.8 18.5c-1.2 2.3-0.4 5.1 1.9 6.3 0.7 0.4 1.5 0.6 2.2 0.6 1.7 0 3.3-0.9 4.1-2.5l5.8-10.9-4.6 48c-0.3 3 1.9 5.7 4.9 6h0.5c2.8 0 5.2-2.1 5.4-4.9l3-31.1 3 31.1c0.3 2.8 2.6 4.9 5.4 4.9h0.5c3-0.3 5.2-3 4.9-6l-4.6-48 5.8 10.9c0.8 1.6 2.5 2.5 4.1 2.5 0.7 0 1.5-0.2 2.2-0.6 2.5-1.2 3.3-4 2.1-6.3z"/>
   </g>
  </g>
  <g transform="matrix(.11704 0 0 .11704 165.6 81.301)">
   <g stroke-width="1.0003">
    <circle cx="50" cy="13" r="10.5"/>
    <path d="m73.3 50-9.9-18.5c-1.8-3.4-5.3-5.5-9.1-5.5h-8.7c-3.8 0-7.3 2.1-9.1 5.5l-9.8 18.5c-1.2 2.3-0.4 5.1 1.9 6.3 0.7 0.4 1.5 0.6 2.2 0.6 1.7 0 3.3-0.9 4.1-2.5l5.8-10.9-4.6 48c-0.3 3 1.9 5.7 4.9 6h0.5c2.8 0 5.2-2.1 5.4-4.9l3-31.1 3 31.1c0.3 2.8 2.6 4.9 5.4 4.9h0.5c3-0.3 5.2-3 4.9-6l-4.6-48 5.8 10.9c0.8 1.6 2.5 2.5 4.1 2.5 0.7 0 1.5-0.2 2.2-0.6 2.5-1.2 3.3-4 2.1-6.3z"/>
   </g>
  </g>
 </g>
 <text x="52.16156" y="42.111088" fill="#000000" font-family="sans-serif" font-size="4.2333px" letter-spacing="0px" stroke-width=".26458" word-spacing="0px" style="line-height:1.25" xml:space="preserve"><tspan x="52.16156" y="42.111088" stroke-width=".26458">Tutoring Group "Rabbit"</tspan></text>
 <g transform="matrix(.11704 0 0 .11704 78.529 63.921)" stroke-width="1.0003">
  <g stroke-width="1.0003">
   <circle cx="50" cy="13" r="10.5"/>
   <path d="m73.3 50-9.9-18.5c-1.8-3.4-5.3-5.5-9.1-5.5h-8.7c-3.8 0-7.3 2.1-9.1 5.5l-9.8 18.5c-1.2 2.3-0.4 5.1 1.9 6.3 0.7 0.4 1.5 0.6 2.2 0.6 1.7 0 3.3-0.9 4.1-2.5l5.8-10.9-4.6 48c-0.3 3 1.9 5.7 4.9 6h0.5c2.8 0 5.2-2.1 5.4-4.9l3-31.1 3 31.1c0.3 2.8 2.6 4.9 5.4 4.9h0.5c3-0.3 5.2-3 4.9-6l-4.6-48 5.8 10.9c0.8 1.6 2.5 2.5 4.1 2.5 0.7 0 1.5-0.2 2.2-0.6 2.5-1.2 3.3-4 2.1-6.3z"/>
  </g>
 </g>
 <ellipse cx="84.38" cy="70.255" rx="4.7815" ry="8.9398" fill="none" stroke="#ee442f" stroke-width=".794"/>
 <text x="74.689964" y="58.306885" fill="#ee442f" font-family="sans-serif" font-size="4.2333px" letter-spacing="0px" stroke-width=".26458" word-spacing="0px" style="line-height:1.25" xml:space="preserve"><tspan x="74.689964" y="58.306885" fill="#ee442f" stroke-width=".26458">Delegate</tspan></text>
 <g>
  <ellipse cx="89.08" cy="136.21" rx="26.857" ry="23.607" fill="none" stroke="#000" stroke-width=".765"/>
  <g transform="matrix(.11704 0 0 .11704 70.865 121.37)" stroke-width="1.0003">
   <g stroke-width="1.0003">
    <circle cx="50" cy="13" r="10.5"/>
    <path d="m73.3 50-9.9-18.5c-1.8-3.4-5.3-5.5-9.1-5.5h-8.7c-3.8 0-7.3 2.1-9.1 5.5l-9.8 18.5c-1.2 2.3-0.4 5.1 1.9 6.3 0.7 0.4 1.5 0.6 2.2 0.6 1.7 0 3.3-0.9 4.1-2.5l5.8-10.9-4.6 48c-0.3 3 1.9 5.7 4.9 6h0.5c2.8 0 5.2-2.1 5.4-4.9l3-31.1 3 31.1c0.3 2.8 2.6 4.9 5.4 4.9h0.5c3-0.3 5.2-3 4.9-6l-4.6-48 5.8 10.9c0.8 1.6 2.5 2.5 4.1 2.5 0.7 0 1.5-0.2 2.2-0.6 2.5-1.2 3.3-4 2.1-6.3z"/>
   </g>
  </g>
  <g transform="matrix(.11704 0 0 .11704 87.281 115.83)" stroke-width="1.0003">
   <g stroke-width="1.0003">
    <circle cx="50" cy="13" r="10.5"/>
    <path d="m73.3 50-9.9-18.5c-1.8-3.4-5.3-5.5-9.1-5.5h-8.7c-3.8 0-7.3 2.1-9.1 5.5l-9.8 18.5c-1.2 2.3-0.4 5.1 1.9 6.3 0.7 0.4 1.5 0.6 2.2 0.6 1.7 0 3.3-0.9 4.1-2.5l5.8-10.9-4.6 48c-0.3 3 1.9 5.7 4.9 6h0.5c2.8 0 5.2-2.1 5.4-4.9l3-31.1 3 31.1c0.3 2.8 2.6 4.9 5.4 4.9h0.5c3-0.3 5.2-3 4.9-6l-4.6-48 5.8 10.9c0.8 1.6 2.5 2.5 4.1 2.5 0.7 0 1.5-0.2 2.2-0.6 2.5-1.2 3.3-4 2.1-6.3z"/>
   </g>
  </g>
  <path d="m89.21 70.721 69.475 8.1016" fill="none" stroke="#ee442f" stroke-width=".7"/>
 </g>
 <text x="70.233574" y="109.17237" fill="#000000" font-family="sans-serif" font-size="4.2333px" letter-spacing="0px" stroke-width=".26458" word-spacing="0px" style="line-height:1.25" xml:space="preserve"><tspan x="70.233574" y="109.17237" stroke-width=".26458">Tutoring Group "42"</tspan></text>
 <text x="173.80618" y="55.691757" fill="#000000" font-family="sans-serif" font-size="4.2333px" letter-spacing="0px" stroke-width=".26458" word-spacing="0px" style="line-height:1.25" xml:space="preserve"><tspan x="173.80618" y="55.691757" stroke-width=".26458">Tutor Team</tspan></text>
 <g transform="matrix(.11704 0 0 .11704 182.41 84.831)" stroke-width="1.0003">
  <g stroke-width="1.0003">
   <circle cx="50" cy="13" r="10.5"/>
   <path d="m73.3 50-9.9-18.5c-1.8-3.4-5.3-5.5-9.1-5.5h-8.7c-3.8 0-7.3 2.1-9.1 5.5l-9.8 18.5c-1.2 2.3-0.4 5.1 1.9 6.3 0.7 0.4 1.5 0.6 2.2 0.6 1.7 0 3.3-0.9 4.1-2.5l5.8-10.9-4.6 48c-0.3 3 1.9 5.7 4.9 6h0.5c2.8 0 5.2-2.1 5.4-4.9l3-31.1 3 31.1c0.3 2.8 2.6 4.9 5.4 4.9h0.5c3-0.3 5.2-3 4.9-6l-4.6-48 5.8 10.9c0.8 1.6 2.5 2.5 4.1 2.5 0.7 0 1.5-0.2 2.2-0.6 2.5-1.2 3.3-4 2.1-6.3z"/>
  </g>
 </g>
 <text x="168.66597" y="79.295189" fill="#63acbe" fill-opacity=".85882" font-family="sans-serif" font-size="4.2333px" letter-spacing="0px" stroke-width=".26458" word-spacing="0px" style="line-height:1.25" xml:space="preserve"><tspan x="168.66597" y="79.295189" fill="#63acbe" fill-opacity=".85882" stroke-width=".26458">Tutoring Organiser</tspan></text>
 <g fill="none">
  <ellipse cx="188.26" cy="90.683" rx="4.7815" ry="8.9398" stroke="#63acbe" stroke-width=".794"/>
  <path d="m96.831 138.86 67.404-41.857" stroke="#ee442f" stroke-width=".7"/>
  <ellipse cx="185.2" cy="82.116" rx="26.857" ry="23.607" stroke="#000" stroke-width=".765"/>
  <path d="m191.84 97.161 24.432 24.654" stroke="#63acbe" stroke-width=".7"/>
 </g>
 <g transform="translate(-15.477 14.003)">
  <text x="232.00858" y="121.19379" fill="#601a4a" font-family="sans-serif" font-size="4.2333px" letter-spacing="0px" stroke-width=".26458" word-spacing="0px" style="line-height:1.25" xml:space="preserve"><tspan x="232.00858" y="121.19379" fill="#601a4a" stroke-width=".26458">LIACS</tspan></text>
  <ellipse cx="249.15" cy="121.63" rx="23.528" ry="20.085" fill="none" stroke="#601a4a" stroke-width=".7"/>
  <text x="248.19829" y="114.93588" fill="#601a4a" font-family="sans-serif" font-size="4.2333px" letter-spacing="0px" stroke-width=".26458" word-spacing="0px" style="line-height:1.25" xml:space="preserve"><tspan x="248.19829" y="114.93588" fill="#601a4a" stroke-width=".26458">Faculty</tspan></text>
  <text x="240.16957" y="131.31723" fill="#601a4a" font-family="sans-serif" font-size="4.2333px" letter-spacing="0px" stroke-width=".26458" word-spacing="0px" style="line-height:1.25" xml:space="preserve"><tspan x="240.16957" y="131.31723" fill="#601a4a" stroke-width=".26458">University</tspan></text>
 </g>
 <text x="111.5107" y="33.942394" fill="#000000" font-family="sans-serif" font-size="3.5278px" letter-spacing="0px" stroke-width=".26458" word-spacing="0px" style="line-height:1.25" xml:space="preserve"><tspan x="111.5107" y="33.942394">Delegates organise meetings and</tspan><tspan x="111.5107" y="38.352119">channel information for the tutoring</tspan><tspan x="111.5107" y="42.761845">team through Trello board</tspan></text>
 <text x="217.83784" y="89.395592" fill="#000000" font-family="sans-serif" font-size="3.5278px" letter-spacing="0px" stroke-width=".26458" word-spacing="0px" style="line-height:1.25" xml:space="preserve"><tspan x="217.83784" y="89.395592">Tutors report issues and forward</tspan><tspan x="217.83784" y="93.805313">requests to university bodies</tspan></text>
 <path d="m128.97 44.923c-0.0903 19.283-7.7197 27.366-7.7197 27.366" fill="none" marker-end="url(#Arrow2Mend)" stroke="#ee442f" stroke-dasharray="0.52999997, 0.26499999000000002" stroke-width=".265"/>
 <path d="m234.16 95.325c-11.758 11.479-28.582 13.264-28.582 13.264" fill="none" marker-end="url(#marker2471)" stroke="#63acbe" stroke-dasharray="0.52999997, 0.26499999000000002" stroke-width=".265"/>
 <text x="137.67979" y="144.44153" fill="#000000" font-family="sans-serif" font-size="3.5278px" letter-spacing="0px" stroke-width=".26458" word-spacing="0px" style="line-height:1.25" xml:space="preserve"><tspan x="137.67979" y="144.44153">Tutoring groups consist of students</tspan><tspan x="137.67979" y="148.85126">that help each other and share a</tspan><tspan x="137.67979" y="153.26097">physical location in the Snellius</tspan><tspan x="137.67979" y="157.6707">building for on-site activities</tspan></text>
 <path d="m136.13 149.54c-12.34 1.9485-20.059-4.2599-20.059-4.2599" fill="none" marker-end="url(#marker2523)" stroke="#000" stroke-dasharray="0.52999997, 0.26499999000000002" stroke-width=".265"/>
</svg>
